<svg xmlns="http://www.w3.org/2000/svg" width="175" height="46" viewBox="0 0 175 46">
  <g id="Group_234" data-name="Group 234" transform="translate(-38 -39)">
    <text id="oolFinance" transform="translate(80 71.6)" fill="#fff" font-size="27" font-family="Arial-BoldMT, Arial" font-weight="700" letter-spacing="-0.04em"><tspan x="0" y="0">oolFinance</tspan></text>
    <g id="Group_232" data-name="Group 232" transform="translate(5)">
      <g id="Ellipse_14" data-name="Ellipse 14" transform="translate(36 42)" fill="#0770e5" stroke="#00215f" stroke-width="3">
        <circle cx="20" cy="20" r="20" stroke="none"/>
        <circle cx="20" cy="20" r="21.5" fill="none"/>
      </g>
      <path id="Subtraction_2" data-name="Subtraction 2" d="M3503,21a10,10,0,1,1,0-20,9.907,9.907,0,0,1,5.967,1.98A10.1,10.1,0,0,1,3512.54,8h-4.345a6,6,0,1,0,0,6h4.345a10.106,10.106,0,0,1-3.573,5.019A9.906,9.906,0,0,1,3503,21Z" transform="translate(-3447 51)" fill="#fff"/>
      <g id="Ellipse_17" data-name="Ellipse 17" transform="translate(38 44)" fill="none" stroke="#00215f" stroke-width="1">
        <circle cx="18" cy="18" r="18" stroke="none"/>
        <circle cx="18" cy="18" r="17.5" fill="none"/>
      </g>
    </g>
    <rect id="Rectangle_146" data-name="Rectangle 146" width="6" height="7" transform="translate(132.5 49)" fill="#00215f"/>
    <circle id="Ellipse_18" data-name="Ellipse 18" cx="2.5" cy="2.5" r="2.5" transform="translate(132.7 51)" fill="#fff"/>
  </g>
</svg>
