<svg xmlns="http://www.w3.org/2000/svg" width="12.608" height="14.633" viewBox="0 0 12.608 14.633">
  <g id="Group_1935" data-name="Group 1935" transform="translate(-48.545 -65.265)">
    <g id="Group_1927" data-name="Group 1927" transform="translate(48.545 65.265)">
      <path id="Path_90" data-name="Path 90" d="M79.029,71.359H70.655a.847.847,0,0,0-.845.912l.678,8.8a.848.848,0,0,0,.845.783h7.018a.848.848,0,0,0,.845-.783l.678-8.8a.847.847,0,0,0-.845-.912Zm-1.463,8.8H72.118l-.547-7.108h6.543Z" transform="translate(-68.539 -67.225)" fill="#fa141b"/>
      <path id="Path_91" data-name="Path 91" d="M78.7,80.54h.044a.847.847,0,0,0,.846-.8l.227-4.378a.848.848,0,1,0-1.693-.087L77.9,79.65A.847.847,0,0,0,78.7,80.54Z" transform="translate(-71.141 -68.226)" fill="#fa141b"/>
      <path id="Path_92" data-name="Path 92" d="M74.8,80.542h.044a.847.847,0,0,0,.8-.89l-.227-4.378a.856.856,0,0,0-.89-.8.847.847,0,0,0-.8.89l.227,4.378A.847.847,0,0,0,74.8,80.542Z" transform="translate(-69.801 -68.226)" fill="#fa141b"/>
      <path id="Path_93" data-name="Path 93" d="M79.7,67.309H76.806v-.222a1.825,1.825,0,0,0-1.823-1.822H73.5a1.824,1.824,0,0,0-1.822,1.822v.222H68.785a.848.848,0,1,0,0,1.7H79.7a.848.848,0,0,0,0-1.7Zm-6.325,0v-.222a.127.127,0,0,1,.126-.126h1.485a.127.127,0,0,1,.127.126v.222Z" transform="translate(-67.937 -65.265)" fill="#fa141b"/>
    </g>
  </g>
</svg>
