<svg xmlns="http://www.w3.org/2000/svg" width="21.547" height="16.424" viewBox="0 0 21.547 16.424">
  <path id="Discord.3b8b8219" d="M18.241,4.215a17.769,17.769,0,0,0-4.386-1.36.067.067,0,0,0-.07.033,12.374,12.374,0,0,0-.546,1.122,16.4,16.4,0,0,0-4.926,0,11.348,11.348,0,0,0-.555-1.122.069.069,0,0,0-.07-.033A17.719,17.719,0,0,0,3.3,4.215a.063.063,0,0,0-.029.025A18.185,18.185,0,0,0,.089,16.5a.074.074,0,0,0,.028.05,17.866,17.866,0,0,0,5.38,2.72.07.07,0,0,0,.076-.025,12.781,12.781,0,0,0,1.1-1.79.068.068,0,0,0-.037-.095,11.768,11.768,0,0,1-1.681-.8.069.069,0,0,1-.007-.115c.113-.085.226-.173.334-.262a.067.067,0,0,1,.07-.009,12.742,12.742,0,0,0,10.829,0,.066.066,0,0,1,.07.009c.108.089.221.178.335.263a.069.069,0,0,1-.006.115,11.041,11.041,0,0,1-1.682.8.069.069,0,0,0-.037.1,14.341,14.341,0,0,0,1.1,1.789.068.068,0,0,0,.076.026,17.811,17.811,0,0,0,5.389-2.72.069.069,0,0,0,.028-.05A18.066,18.066,0,0,0,18.269,4.24a.055.055,0,0,0-.028-.026ZM7.2,14.056a2.071,2.071,0,0,1-1.936-2.172A2.06,2.06,0,0,1,7.2,9.712a2.048,2.048,0,0,1,1.936,2.172A2.06,2.06,0,0,1,7.2,14.056Zm7.16,0a2.071,2.071,0,0,1-1.936-2.172A2.06,2.06,0,0,1,14.36,9.712,2.048,2.048,0,0,1,16.3,11.884a2.054,2.054,0,0,1-1.936,2.172Z" transform="translate(0 -2.853)" fill="#fff"/>
</svg>
