<svg id="Group_331" data-name="Group 331" xmlns="http://www.w3.org/2000/svg" width="12.436" height="12.435" viewBox="0 0 12.436 12.435">
  <path id="Path_55" data-name="Path 55" d="M120.193,28.839a.768.768,0,0,0-.474-.706.761.761,0,0,0-.294-.06h-4.887a.769.769,0,0,0,0,1.538h3.03l-4.7,4.7a.769.769,0,1,0,1.087,1.087l4.7-4.7v3.03a.769.769,0,0,0,1.538,0v-4.89Z" transform="translate(-107.757 -28.073)" fill="#c3c3c3"/>
  <path id="Path_56" data-name="Path 56" d="M114.014,36.69a.769.769,0,0,0-.769.769v1.906a1.078,1.078,0,0,1-1.077,1.077h-4.851a1.078,1.078,0,0,1-1.077-1.077V34.514a1.078,1.078,0,0,1,1.077-1.077h1.906a.769.769,0,0,0,0-1.538h-1.906a2.618,2.618,0,0,0-2.615,2.615v4.851a2.618,2.618,0,0,0,2.615,2.615h4.851a2.618,2.618,0,0,0,2.615-2.615V37.459A.769.769,0,0,0,114.014,36.69Z" transform="translate(-104.702 -29.545)" fill="#c3c3c3"/>
</svg>
