<svg id="Group_330" data-name="Group 330" xmlns="http://www.w3.org/2000/svg" width="12.714" height="14.95" viewBox="0 0 12.714 14.95">
  <path id="Path_53" data-name="Path 53" d="M55.851,43.687H50.828a2.618,2.618,0,0,1-2.615-2.615V33.813A2.618,2.618,0,0,1,50.828,31.2h5.023a2.618,2.618,0,0,1,2.615,2.615v7.259A2.618,2.618,0,0,1,55.851,43.687Zm-5.023-10.95a1.078,1.078,0,0,0-1.077,1.077v7.259a1.078,1.078,0,0,0,1.077,1.077h5.023a1.078,1.078,0,0,0,1.077-1.077V33.813a1.078,1.078,0,0,0-1.077-1.077Z" transform="translate(-48.213 -28.737)" fill="#c3c3c3"/>
  <path id="Path_54" data-name="Path 54" d="M62.081,39.071a.769.769,0,0,1-.769-.769V29.813a1.078,1.078,0,0,0-1.077-1.077H53.982a.769.769,0,0,1,0-1.538h6.253a2.618,2.618,0,0,1,2.615,2.615V38.3A.769.769,0,0,1,62.081,39.071Z" transform="translate(-50.137 -27.198)" fill="#c3c3c3"/>
</svg>
