<svg xmlns="http://www.w3.org/2000/svg" width="15.843" height="14.082" viewBox="0 0 15.843 14.082">
  <g id="Group_350" data-name="Group 350" transform="translate(0.5 0.611)">
    <path id="Path_58" data-name="Path 58" d="M11.239,3.892a.987.987,0,0,0-.93,0L8.138,5.171l-1.473.814L4.534,7.263a.987.987,0,0,1-.93,0L1.938,6.256a.945.945,0,0,1-.465-.814V3.5a.956.956,0,0,1,.465-.814L3.6,1.721a.987.987,0,0,1,.93,0L6.2,2.729a.945.945,0,0,1,.465.814V4.822l1.473-.853V2.652a.956.956,0,0,0-.465-.814L4.573.016a.987.987,0,0,0-.93,0L.465,1.876A.852.852,0,0,0,0,2.652V6.295a.956.956,0,0,0,.465.814L3.6,8.93a.987.987,0,0,0,.93,0L6.666,7.69l1.473-.853L10.27,5.6a.987.987,0,0,1,.93,0l1.666.969a.945.945,0,0,1,.465.814V9.317a.956.956,0,0,1-.465.814l-1.628.969a.987.987,0,0,1-.93,0l-1.666-.969a.945.945,0,0,1-.465-.814V8.077L6.7,8.93v1.279a.956.956,0,0,0,.465.814l3.139,1.821a.987.987,0,0,0,.93,0l3.139-1.821a.945.945,0,0,0,.465-.814V6.527a.956.956,0,0,0-.465-.814Z" transform="translate(0)" fill="#333" stroke="rgba(0,0,0,0)" stroke-width="1"/>
  </g>
</svg>
