<svg xmlns="http://www.w3.org/2000/svg" width="20.989" height="17.059" viewBox="0 0 20.989 17.059">
  <path id="Twitter.01a43fe9" d="M20.947,4.278a8.745,8.745,0,0,1-2.471.678,4.336,4.336,0,0,0,1.892-2.381A8.888,8.888,0,0,1,17.634,3.61,4.3,4.3,0,0,0,10.3,7.53,12.189,12.189,0,0,1,1.434,3.047,4.217,4.217,0,0,0,.852,5.212,4.3,4.3,0,0,0,2.765,8.794,4.289,4.289,0,0,1,.817,8.255v.052a4.305,4.305,0,0,0,3.451,4.221,4.369,4.369,0,0,1-1.934.074A4.317,4.317,0,0,0,6.36,15.591a8.629,8.629,0,0,1-5.336,1.841A9.133,9.133,0,0,1,0,17.374a12.239,12.239,0,0,0,6.609,1.932A12.153,12.153,0,0,0,18.85,7.075c0-.184,0-.367-.013-.551A8.688,8.688,0,0,0,20.989,4.3Z" transform="translate(0 -2.246)" fill="#fff"/>
</svg>
