<svg xmlns="http://www.w3.org/2000/svg" width="8.428" height="9.748" viewBox="0 0 8.428 9.748">
  <g id="Group_196" data-name="Group 196" transform="translate(-20.015 -41.111)">
    <path id="Path_35" data-name="Path 35" d="M31.466,49.712a1.192,1.192,0,0,0-.509-.95,2.933,2.933,0,0,0-1.477-.477,2.043,2.043,0,0,1-.8-.236c-.134-.082-.174-.062-.171.093a1.027,1.027,0,0,0,.474.829,7.892,7.892,0,0,0,1.426.685c.4.187.788.4.865.94A1.219,1.219,0,0,0,31.466,49.712Z" transform="translate(-3.027 -2.455)"/>
    <path id="Path_36" data-name="Path 36" d="M30.145,50.409c-.106-.061-.118.045-.123.114a1.237,1.237,0,0,0,.1.68,6.4,6.4,0,0,0,.439.706,1.71,1.71,0,0,1,.423,1.143c-.014.134-.1.243-.1.379.18-.048.2-.071.445-.306a1.438,1.438,0,0,0-.028-2A7.09,7.09,0,0,0,30.145,50.409Z" transform="translate(-3.562 -3.306)"/>
    <path id="Path_37" data-name="Path 37" d="M27.319,54.78a1.349,1.349,0,0,1-.157-.569,1.078,1.078,0,0,0-.863-1.08,2.137,2.137,0,0,0-1.871.569c-.027.023-.082.036-.066.088a.109.109,0,0,0,.111.073,1.324,1.324,0,0,1,.977.538.754.754,0,0,0,.442.246.473.473,0,0,0,.478-.247.4.4,0,0,0-.092-.482c-.006-.047-.048-.042-.078-.056a.261.261,0,0,0-.39.035c-.065.088-.136.192.044.272-.017-.22.121-.252.289-.243l.09.037c.084.209.058.373-.085.438a.376.376,0,0,1-.38-.035.348.348,0,0,1-.172-.375.338.338,0,0,1,.252-.276.671.671,0,0,1,.738.251,3.959,3.959,0,0,1,.37.7.725.725,0,0,0,.964.406c-.1-.062-.242.031-.319-.1A.37.37,0,0,1,27.319,54.78Z" transform="translate(-1.548 -4.267)"/>
    <path id="Path_38" data-name="Path 38" d="M26.091,46.57c.057-.07-.035-.121-.066-.168a1.427,1.427,0,0,1-.162-.339c-.048-.143-.065-.295-.1-.442a.734.734,0,0,0-.388-.521c-.3-.146-.335-.122-.308.247a1.4,1.4,0,0,0,.185.651,1.2,1.2,0,0,0,.617.585C25.937,46.613,26.032,46.641,26.091,46.57Z" transform="translate(-1.796 -1.391)"/>
    <path id="Path_39" data-name="Path 39" d="M27.483,51.381a3.137,3.137,0,0,0-1.112.324.2.2,0,0,0,.183.036,2.83,2.83,0,0,1,.712-.095,2.114,2.114,0,0,0,.758-.154.888.888,0,0,0,.431-1.264c-.021-.037-.027-.1-.091-.082s-.006.075,0,.112a.864.864,0,0,1-.276.885A1.35,1.35,0,0,1,27.483,51.381Z" transform="translate(-2.264 -3.217)"/>
    <path id="Path_40" data-name="Path 40" d="M25.423,48.93a.258.258,0,0,0,.259.268.765.765,0,0,0,.453-.116.241.241,0,0,0,.081-.346.37.37,0,0,0-.373-.214.856.856,0,0,0-.1.006A.45.45,0,0,0,25.423,48.93Zm.426-.335a.165.165,0,0,1,.2.128.17.17,0,0,1-.172.134c-.088.006-.178-.03-.185-.134S25.761,48.6,25.848,48.595Z" transform="translate(-1.926 -2.64)"/>
    <path id="Path_41" data-name="Path 41" d="M30.838,46c.026.2.021.4.031.608a.511.511,0,0,0,.1-.424c-.006-.144.006-.248.221-.162a1.063,1.063,0,0,1-.317-.961c-.009.084-.093.124-.1.2-.011.112.02.25-.035.33-.071.1-.19-.08-.319-.013C30.56,45.73,30.808,45.775,30.838,46Z" transform="translate(-3.707 -1.407)"/>
    <path id="Path_42" data-name="Path 42" d="M20.151,41.385h0Z" transform="translate(-0.049 -0.097)"/>
    <path id="Path_43" data-name="Path 43" d="M22.8,48.371a2.892,2.892,0,0,0-.286-.212.642.642,0,0,1-.3-.8,3.807,3.807,0,0,0,.367-1.21c.034-.243.126-.3.38-.315a.851.851,0,0,0,.584-.3.376.376,0,0,0-.039-.539c-.373-.411-.735-.832-1.113-1.238-.162-.173-.316-.353-.476-.528l-1.9-2.112,1.858,2.3c.095.12.189.239.285.358.357.441.717.88,1.074,1.322.078.1.124.214.012.3a.422.422,0,0,1-.59-.053L21.365,43.41l1.071,1.943a.2.2,0,0,1-.024.238,1.247,1.247,0,0,0-.235.518,2.59,2.59,0,0,1-.2.75,8.8,8.8,0,0,1-.586.821,1.129,1.129,0,0,0-.186,1.025c.093.33.326.576.435.888.02.059.07.056.117.045a2.051,2.051,0,0,0,1.06-.5A.528.528,0,0,0,22.8,48.371Zm-1.146.2c-.206-.015-.034-.2-.126-.286-.05-.047.044-.059.082-.06a.159.159,0,0,1,.18.171C21.788,48.505,21.77,48.583,21.659,48.575Z" transform="translate(0 0)"/>
    <path id="Path_44" data-name="Path 44" d="M26.214,45.229h0c.1.109.2.221.293.34a3.6,3.6,0,0,0,.811.887,2.242,2.242,0,0,0,1.358.3.929.929,0,0,0,.312.062.735.735,0,0,1,.58.261c.042.044.074.1.151.117a2.051,2.051,0,0,0-.393-.858c-.037-.048-.071-.109-.129-.1-.077.008-.062.089-.076.145-.061.254-.168.346-.361.31a.136.136,0,0,1-.047-.1c0-.075.115-.213.142-.413a.489.489,0,0,0-.123-.428,1.872,1.872,0,0,0-.789-.312l0,.008a3.442,3.442,0,0,0-1.114-.053.312.312,0,0,1-.293-.118c-.034-.041-.073-.077-.109-.115s-.048-.053-.082-.086a1.947,1.947,0,0,0-1.331-.586A2.141,2.141,0,0,1,26.214,45.229Z" transform="translate(-1.782 -1.204)"/>
  </g>
</svg>
