<svg xmlns="http://www.w3.org/2000/svg" width="17.235" height="12.613" viewBox="0 0 17.235 12.613">
  <g id="Group_1931" data-name="Group 1931" transform="translate(-546 -190.41)">
    <path id="Path_86" data-name="Path 86" d="M16.275,80.045a9.322,9.322,0,0,1-8.4-5.35,2.249,2.249,0,0,1,0-1.913,9.276,9.276,0,0,1,16.808,0,2.248,2.248,0,0,1,0,1.914A9.32,9.32,0,0,1,16.275,80.045Zm0-10.917A7.619,7.619,0,0,0,9.406,73.5a.558.558,0,0,0,0,.474,7.579,7.579,0,0,0,13.736,0,.554.554,0,0,0,0-.473A7.62,7.62,0,0,0,16.275,69.128Z" transform="translate(538.343 122.978)" fill="#fff"/>
    <path id="Path_87" data-name="Path 87" d="M18.448,78.966a4.036,4.036,0,1,1,4.036-4.036A4.04,4.04,0,0,1,18.448,78.966Zm0-6.376a2.34,2.34,0,1,0,2.34,2.34A2.342,2.342,0,0,0,18.448,72.59Z" transform="translate(536.17 121.864)" fill="#fff"/>
  </g>
</svg>
